# xmcd CD database file
#
# Track frame offsets:
#	150
#	13630
#	28449
#	39733
#	50877
#	65329
#	73776
#	82945
#	93880
#	108509
#	115589
#	124057
#	131881
#	141247
#	150972
#	161648
#	172265
#	181380
#	189036
#	198096
#	208794
#	217894
#	225533
#	233594
#	248811
#	257630
#
# Disc length: 3585 seconds
#
# Revision: 1
# Processed by: cddbd v1.5.2PL0 Copyright (c) Steve Scherf et al.
# Submitted via: CDex 1.70beta2
#
DISCID=6a0dff1a
DTITLE=Julie London - Julie Is Her Name
DYEAR=1900
DGENRE=Jazz
TTITLE0=Cry Me a River
TTITLE1=I Should Care
TTITLE2=I'm in the Mood For Love
TTITLE3=I'm So Glad There's You
TTITLE4=Can't Help Lovin' That Man
TTITLE5=I Love You
TTITLE6=Say It Ain't So
TTITLE7=It Never Entered My Mind
TTITLE8=Easy Street
TTITLE9=S'Wonderful
TTITLE10=No Moon At All
TTITLE11=Laura
TTITLE12=Gone With The Wind
TTITLE13=June In January
TTITLE14=Feruary Brings The Rain
TTITLE15=Melancholy March
TTITLE16=I'll Remember April
TTITLE17=People Who Are Born In May
TTITLE18=Memphis In June
TTITLE19=Sleigh Ride In July
TTITLE20=Time For August
TTITLE21=September In The Rain
TTITLE22=This October
TTITLE23=November Twilight
TTITLE24=Warm December
TTITLE25=The Thirteenth Month
EXTD=
EXTT0=
EXTT1=
EXTT2=
EXTT3=
EXTT4=
EXTT5=
EXTT6=
EXTT7=
EXTT8=
EXTT9=
EXTT10=
EXTT11=
EXTT12=
EXTT13=
EXTT14=
EXTT15=
EXTT16=
EXTT17=
EXTT18=
EXTT19=
EXTT20=
EXTT21=
EXTT22=
EXTT23=
EXTT24=
EXTT25=
PLAYORDER=
